#!OML:ASF F:\VICON\USERDATA\INSTALL\rory3\rory3.ASF
:FULLY-SPECIFIED
:DEGREES
3587
root 1.3444 17.8149 -2.70097 3.43696 -49.7621 4.29535
lowerback 5.62238 -0.235803 -0.270122
upperback 2.11231 -0.328113 5.54305
thorax -0.939124 -0.214869 5.92881
lowerneck -19.529 8.21416 -1.64112
upperneck 27.4981 10.8786 4.07033
head 11.9042 5.18578 3.4701
rclavicle 1.47101e-014 -3.81667e-014
rhumerus -7.59459 26.3473 -57.0493
rradius 89.0936
rwrist 41.7329
rhand -43.6193 -4.28417
rfingers 7.12502
rthumb -16.4547 -33.6063
lclavicle 1.47101e-014 -3.81667e-014
lhumerus -12.42 -15.7908 92.843
lradius 87.9066
lwrist -7.95215
lhand -25.5983 17.8997
lfingers 7.12502
lthumb 0.933679 47.8774
rfemur -26.4194 7.94325 10.0095
rtibia 33.0141
rfoot -9.86603 0.282922
rtoes -0.233463
lfemur -3.89125 -5.09383 -15.3726
ltibia 25.7327
lfoot -11.9528 -0.870864
ltoes -19.556
3588
root 1.39577 17.8053 -2.68611 3.60775 -50.0966 4.18506
lowerback 5.49661 0.0113724 -0.189733
upperback 2.09993 0.00341494 5.4841
thorax -0.916815 -0.0476415 5.79782
lowerneck -19.5104 8.05652 -1.56
upperneck 27.4709 10.577 4.22557
head 11.8964 5.08096 3.46775
rclavicle -1.0138e-013 7.95139e-015
rhumerus -7.07625 27.6981 -57.0681
rradius 89.8793
rwrist 42.9032
rhand -43.4518 -2.82836
rfingers 7.12502
rthumb -16.2934 -32.1638
lclavicle -1.0138e-013 7.95139e-015
lhumerus -12.6216 -13.1073 92.2436
lradius 88.6533
lwrist -7.10493
lhand -25.9744 18.3315
lfingers 7.12502
lthumb 0.570488 48.3105
rfemur -26.7308 8.21789 9.84458
rtibia 33.0388
rfoot -9.76848 0.329475
rtoes -0.460139
lfemur -3.8034 -4.46395 -15.4056
ltibia 25.3412
lfoot -12.1775 -0.941706
ltoes -18.5581
3589
root 1.45383 17.795 -2.67063 3.6929 -50.3006 4.16558
lowerback 5.46962 0.228515 -0.0974814
upperback 2.04502 0.30043 5.44651
thorax -0.988363 0.104024 5.68619
lowerneck -19.3878 7.84271 -1.52042
upperneck 27.3584 10.2643 4.19753
head 11.8457 4.94488 3.39346
rclavicle 3.97569e-014 -1.59028e-014
rhumerus -6.50464 29.0491 -56.9484
rradius 90.629
rwrist 43.7402
rhand -43.645 -2.01428
rfingers 7.12502
rthumb -16.4795 -31.3344
lclavicle 3.97569e-014 -1.59028e-014
lhumerus -12.6354 -10.4291 91.6504
lradius 89.2172
lwrist -6.38578
lhand -26.2587 18.8123
lfingers 7.12502
lthumb 0.29585 48.7919
rfemur -27.0116 8.38751 9.60751
rtibia 33.0605
rfoot -9.62242 0.390158
rtoes -0.472541
lfemur -3.71125 -3.92995 -15.5717
ltibia 24.953
lfoot -12.4393 -0.773807
ltoes -19.3514
3590
root 1.51235 17.787 -2.64701 3.67025 -50.4191 4.26373
lowerback 5.29867 0.358031 -0.0153585
upperback 2.04586 0.472598 5.4001
thorax -0.908361 0.190123 5.57868
lowerneck -19.3344 7.69941 -1.43434
upperneck 27.3435 10.0595 4.10223
head 11.8497 4.84898 3.31245
rclavicle 3.93594e-014 -2.8625e-014
rhumerus -5.67226 30.5759 -56.75
rradius 91.2536
rwrist 44.2632
rhand -44.2314 -2.18892
rfingers 7.12502
rthumb -17.0439 -31.4612
lclavicle 3.93594e-014 -2.8625e-014
lhumerus -12.3625 -7.6529 90.8973
lradius 89.5663
lwrist -5.84204
lhand -26.4183 19.4363
lfingers 7.12502
lthumb 0.141748 49.416
rfemur -27.2198 8.4425 9.25775
rtibia 33.0871
rfoot -9.50165 0.529391
rtoes 0.163413
lfemur -3.60752 -3.15648 -15.864
ltibia 24.5957
lfoot -12.7572 -0.835194
ltoes -21.1254
3591
root 1.57135 17.7776 -2.61774 3.54028 -50.6413 4.44988
lowerback 5.1255 0.501416 0.0936556
upperback 2.05139 0.664346 5.26426
thorax -0.822123 0.286929 5.36108
lowerneck -19.2164 7.62767 -1.23309
upperneck 27.3445 9.89191 4.08688
head 11.8469 4.7922 3.24498
rclavicle -7.95139e-014 -2.8625e-014
rhumerus -4.8465 32.0445 -56.582
rradius 91.9062
rwrist 44.8023
rhand -44.6386 -2.8756
rfingers 7.12502
rthumb -17.4359 -32.1136
lclavicle -7.95139e-014 -2.8625e-014
lhumerus -12.0453 -5.07589 90.0251
lradius 89.8712
lwrist -5.11109
lhand -27.1908 20.9556
lfingers 7.12502
lthumb -0.604413 50.9345
rfemur -27.4187 8.55279 8.82723
rtibia 33.1292
rfoot -9.39657 0.688289
rtoes 0.358481
lfemur -3.47343 -2.21287 -16.2762
ltibia 24.3017
lfoot -13.0639 -0.895821
ltoes -21.1174
3592
root 1.63488 17.7664 -2.59057 3.32858 -50.7738 4.69171
lowerback 5.0672 0.659966 0.24791
upperback 2.04003 0.882601 5.10175
thorax -0.817026 0.398561 5.08868
lowerneck -19.1443 7.50243 -1.23529
upperneck 27.3758 9.65004 4.28853
head 11.8407 4.71026 3.28108
rclavicle -7.07673e-014 5.08889e-014
rhumerus -4.083 33.1563 -56.2503
rradius 92.5648
rwrist 45.2827
rhand -44.5874 -2.91461
rfingers 7.12502
rthumb -17.3866 -32.157
lclavicle -7.07673e-014 5.08889e-014
lhumerus -11.5736 -2.95707 89.225
lradius 90.0213
lwrist -3.72228
lhand -28.5708 22.5154
lfingers 7.12502
lthumb -1.93717 52.4863
rfemur -27.5672 8.54017 8.38861
rtibia 33.1576
rfoot -9.26057 0.839458
rtoes 0.366756
lfemur -3.36348 -1.5111 -16.7819
ltibia 24.0589
lfoot -13.3932 -0.583274
ltoes -20.5706
3593
root 1.70021 17.7516 -2.57003 3.25394 -50.7778 4.75207
lowerback 5.04011 0.775115 0.399111
upperback 2.03204 1.04268 5.05586
thorax -0.820655 0.47974 4.94475
lowerneck -19.1334 7.38106 -1.29705
upperneck 27.4342 9.46455 4.39512
head 11.858 4.63371 3.3051
rclavicle 4.17448e-014 -2.54444e-014
rhumerus -3.04161 34.1141 -55.5846
rradius 93.1131
rwrist 45.4901
rhand -44.3181 -2.4981
rfingers 7.12502
rthumb -17.1274 -31.7632
lclavicle 4.17448e-014 -2.54444e-014
lhumerus -10.9467 -0.83601 88.5027
lradius 89.9628
lwrist -2.47602
lhand -29.3577 22.6553
lfingers 7.12502
lthumb -2.69715 52.618
rfemur -27.6674 8.34381 8.11666
rtibia 33.1312
rfoot -9.04738 1.0598
rtoes 1.1352
lfemur -3.31561 -0.813418 -17.142
ltibia 23.85
lfoot -13.7852 -0.220496
ltoes -21.1035
3594
root 1.7655 17.74 -2.54848 3.30995 -50.7686 4.65567
lowerback 4.95821 0.852356 0.565233
upperback 2.03823 1.14942 5.10184
thorax -0.7751 0.532597 4.893
lowerneck -19.1336 7.29707 -1.44891
upperneck 27.5288 9.36676 4.48796
head 11.8837 4.58458 3.35345
rclavicle -2.8625e-014 1.27222e-014
rhumerus -1.76056 35.0754 -54.7699
rradius 93.6026
rwrist 45.6762
rhand -44.4913 -2.75687
rfingers 7.12502
rthumb -17.2941 -32.0074
lclavicle -2.8625e-014 1.27222e-014
lhumerus -10.266 1.62043 87.8482
lradius 89.7239
lwrist -2.08952
lhand -29.4433 22.2803
lfingers 7.12502
lthumb -2.77979 52.2419
rfemur -27.7504 8.2021 7.95107
rtibia 33.0672
rfoot -8.83497 1.17642
rtoes 1.26226
lfemur -3.30574 -0.214236 -17.3931
ltibia 23.6476
lfoot -14.1452 0.151362
ltoes -21.2357
3595
root 1.8316 17.7346 -2.52473 3.43412 -50.7562 4.48339
lowerback 4.89106 0.909836 0.82111
upperback 2.00784 1.2358 5.13819
thorax -0.771321 0.576361 4.78107
lowerneck -19.0364 7.24246 -1.54226
upperneck 27.6157 9.30773 4.52092
head 11.893 4.55104 3.37085
rclavicle 3.85642e-014 -6.36111e-015
rhumerus -0.546966 36.0108 -54.0613
rradius 94.0292
rwrist 45.7718
rhand -44.7986 -3.367
rfingers 7.12502
rthumb -17.5898 -32.5913
lclavicle 3.85642e-014 -6.36111e-015
lhumerus -9.57435 4.03312 87.195
lradius 89.3537
lwrist -1.90782
lhand -29.9137 22.4604
lfingers 7.12502
lthumb -3.23414 52.4156
rfemur -27.83 8.27681 7.78584
rtibia 32.9949
rfoot -8.73538 1.13386
rtoes 1.49066
lfemur -3.28693 0.153666 -17.6477
ltibia 23.4151
lfoot -14.4558 0.807689
ltoes -20.7128
3596
root 1.89742 17.7253 -2.50383 3.51293 -50.7887 4.45969
lowerback 4.80116 1.04425 0.875682
upperback 1.93374 1.4181 5.20851
thorax -0.812024 0.668539 4.81402
lowerneck -18.9462 7.14216 -1.53127
upperneck 27.6572 9.20683 4.37069
head 11.9056 4.48581 3.29733
rclavicle 1.31198e-014 -4.77083e-015
rhumerus 0.61258 36.7765 -53.1287
rradius 94.3774
rwrist 45.5693
rhand -44.9074 -3.78914
rfingers 7.12502
rthumb -17.6945 -33.004
lclavicle 1.31198e-014 -4.77083e-015
lhumerus -8.79632 6.06731 86.6513
lradius 88.8575
lwrist -1.56819
lhand -30.5442 22.72
lfingers 7.12502
lthumb -3.84296 52.6651
rfemur -28.0048 8.35892 7.51661
rtibia 32.9317
rfoot -8.63922 1.06921
rtoes 1.37029
lfemur -3.27042 0.678095 -18.0203
ltibia 23.1395
lfoot -14.739 1.51987
ltoes -20.4128
3597
root 1.96653 17.7083 -2.48457 3.50201 -50.7138 4.58376
lowerback 4.71719 1.17989 0.749336
upperback 1.83281 1.59654 5.34768
thorax -0.890357 0.758846 5.02244
lowerneck -18.9037 7.00416 -1.62988
upperneck 27.7511 9.0932 4.21006
head 11.9428 4.40079 3.24058
rclavicle 4.53229e-014 6.52014e-014
rhumerus 1.76585 37.3429 -51.9329
rradius 94.6795
rwrist 45.3946
rhand -44.8785 -3.80775
rfingers 7.12502
rthumb -17.6667 -33.0252
lclavicle 4.53229e-014 6.52014e-014
lhumerus -7.95121 7.81058 86.2377
lradius 88.2578
lwrist -1.22839
lhand -31.004 22.8688
lfingers 7.12502
lthumb -4.28701 52.8054
rfemur -28.2088 8.18918 7.16647
rtibia 32.8895
rfoot -8.44382 1.10589
rtoes 1.06611
lfemur -3.26575 1.21215 -18.4923
ltibia 22.8399
lfoot -14.9499 2.19825
ltoes -21.1575
3598
root 2.03851 17.6946 -2.4652 3.36764 -50.5242 4.80573
lowerback 4.64625 1.20166 0.696081
upperback 1.78089 1.62421 5.38105
thorax -0.908964 0.773554 5.08701
lowerneck -18.977 6.94164 -1.709
upperneck 27.9685 9.03235 4.2106
head 12.0407 4.35894 3.25923
rclavicle 4.45278e-014 7.95139e-015
rhumerus 3.01597 37.8164 -50.8497
rradius 94.9299
rwrist 45.3683
rhand -44.5517 -3.51378
rfingers 7.12502
rthumb -17.3522 -32.7592
lclavicle 4.45278e-014 7.95139e-015
lhumerus -7.02034 9.50855 85.6377
lradius 87.578
lwrist -0.992071
lhand -31.4975 23.3079
lfingers 7.12502
lthumb -4.76353 53.2343
rfemur -28.3482 7.97857 6.73849
rtibia 32.8841
rfoot -8.30275 1.0918
rtoes 0.476556
lfemur -3.28138 1.32067 -19.054
ltibia 22.5477
lfoot -15.1455 3.00885
ltoes -22.0468
3599
root 2.10825 17.6887 -2.44527 3.2391 -50.4196 4.93938
lowerback 4.63177 1.20416 0.725472
upperback 1.74008 1.63093 5.3622
thorax -0.942178 0.778049 5.04986
lowerneck -18.9648 6.93119 -1.69092
upperneck 28.0955 9.01397 4.20225
head 12.0906 4.34779 3.25641
rclavicle 3.97569e-015 -4.45278e-014
rhumerus 4.25679 38.1929 -49.9497
rradius 95.065
rwrist 45.4396
rhand -43.9083 -3.09039
rfingers 7.12502
rthumb -16.7329 -32.3893
lclavicle 3.97569e-015 -4.45278e-014
lhumerus -6.16739 11.1152 84.8915
lradius 86.8849
lwrist -0.968455
lhand -31.9897 23.6468
lfingers 7.12502
lthumb -5.23877 53.562
rfemur -28.4292 8.03668 6.33666
rtibia 32.8723
rfoot -8.28152 0.956157
rtoes 0.346355
lfemur -3.25427 1.39053 -19.5366
ltibia 22.252
lfoot -15.3245 3.72178
ltoes -22.0846
3600
root 2.17558 17.6779 -2.42651 3.22491 -50.3686 4.9706
lowerback 4.57547 1.20967 0.741357
upperback 1.7012 1.63922 5.37222
thorax -0.95132 0.782834 5.05146
lowerneck -18.9053 6.94794 -1.6063
upperneck 28.0983 9.03617 4.11568
head 12.0891 4.35501 3.2116
rclavicle 2.62396e-014 1.90833e-014
rhumerus 5.45344 38.3982 -49.101
rradius 95.1826
rwrist 45.5208
rhand -43.3601 -2.80126
rfingers 7.12502
rthumb -16.2052 -32.1439
lclavicle 2.62396e-014 1.90833e-014
lhumerus -5.24544 12.6471 84.1687
lradius 86.0388
lwrist -1.12074
lhand -32.3589 23.4013
lfingers 7.12502
lthumb -5.59525 53.3074
rfemur -28.5316 8.14235 6.00727
rtibia 32.8068
rfoot -8.28574 0.826472
rtoes 0.968075
lfemur -3.24848 1.50699 -19.8999
ltibia 21.9448
lfoot -15.543 4.27691
ltoes -21.8958
3601
root 2.24566 17.6677 -2.411 3.33693 -50.253 4.87131
lowerback 4.5266 1.19091 0.877622
upperback 1.67356 1.61939 5.36021
thorax -0.946725 0.773309 4.96292
lowerneck -18.9912 6.98453 -1.46223
upperneck 28.1917 9.05091 4.09022
head 12.1528 4.37008 3.19082
rclavicle -5.40694e-014 -2.22639e-014
rhumerus 6.48513 38.4037 -48.3997
rradius 95.3167
rwrist 45.5776
rhand -43.4526 -2.97699
rfingers 7.12502
rthumb -16.2942 -32.3124
lclavicle -5.40694e-014 -2.22639e-014
lhumerus -4.17881 13.9441 83.4151
lradius 85.0675
lwrist -1.34302
lhand -32.8289 23.121
lfingers 7.12502
lthumb -6.04907 53.0146
rfemur -28.6599 8.19641 5.80528
rtibia 32.6925
rfoot -8.18059 0.552468
rtoes 0.343284
lfemur -3.28618 1.41076 -20.1533
ltibia 21.615
lfoot -15.8795 4.86106
ltoes -21.6434
